<?xml version="1.0" encoding="utf-8"?>
<!-- Generator: Adobe Illustrator 24.1.2, SVG Export Plug-In . SVG Version: 6.00 Build 0)  -->
<svg version="1.1" id="Calque_1" xmlns="http://www.w3.org/2000/svg" xmlns:xlink="http://www.w3.org/1999/xlink" x="0px" y="0px"
	 viewBox="0 0 68.4 87.9" style="enable-background:new 0 0 68.4 87.9;" xml:space="preserve">
<g>
	<path id="award_1_" d="M68.3,12.7c-0.6-4.1-3.6-7.4-7.6-8.3c-1.3-0.3-2.7-0.2-4,0.2l-1.3,0.4V2.4C55.4,1.1,54.3,0,53,0H15.4
		C14.1,0,13,1.1,13,2.4v2.5l-1.3-0.4c-1.3-0.4-2.7-0.4-4-0.2c-4,0.9-7.1,4.2-7.6,8.3c-0.5,3-0.2,10.9,12.5,18.5l0.4,0.3l0,0.5
		c0.9,9.7,8.2,17.5,17.8,19l0.8,0.1v13.3H15.4c-1.3,0-2.4,1.1-2.4,2.4v18.8c0,1.3,1.1,2.4,2.4,2.4H53c1.3,0,2.4-1.1,2.4-2.4V66.7
		c0-1.3-1.1-2.4-2.4-2.4H36.6V51l0.8-0.1c9.6-1.5,16.9-9.3,17.8-19l0.1-0.5l0.4-0.3C68.5,23.6,68.7,15.7,68.3,12.7z M11.4,24.5
		c-6.6-5.1-6.8-9.4-6.6-11.1c0.2-2.1,1.7-3.8,3.7-4.3l0.1,0c1.6-0.3,3.3,0.5,4.1,1.9l0.2,0.2l0,14.5L11.4,24.5z M50.6,69.1v14H17.8
		v-14H50.6z M50.6,29.9c0,4.4-1.7,8.5-4.8,11.6c-3.1,3.1-7.2,4.8-11.6,4.8h0c-4.4,0-8.5-1.7-11.6-4.8c-3.1-3.1-4.8-7.2-4.8-11.6v-1
		l0-24.1h32.8V29.9z M57,24.5l-1.6,1.2V11.2l0.2-0.3c0.9-1.4,2.5-2.1,4.1-1.9l0.1,0c2,0.5,3.5,2.3,3.7,4.3
		C63.8,15.1,63.6,19.4,57,24.5z"/>
</g>
</svg>
