<?xml version="1.0" encoding="utf-8"?>
<!-- Generator: Adobe Illustrator 24.1.2, SVG Export Plug-In . SVG Version: 6.00 Build 0)  -->
<svg version="1.1" id="Calque_1" xmlns="http://www.w3.org/2000/svg" xmlns:xlink="http://www.w3.org/1999/xlink" x="0px" y="0px"
	 viewBox="0 0 511 511" style="enable-background:new 0 0 511 511;" xml:space="preserve">
<path d="M498.2,221.3C498.2,221.3,498.2,221.2,498.2,221.3L289.7,12.8C280.9,3.9,269-1,256.5-1c-12.6,0-24.4,4.9-33.3,13.8
	L14.9,221.1c-0.1,0.1-0.1,0.1-0.2,0.2c-18.2,18.4-18.2,48.1,0.1,66.4c8.4,8.4,19.4,13.2,31.2,13.7c0.5,0,1,0.1,1.5,0.1h8.3v153.4
	c0,30.4,24.7,55.1,55.1,55.1h81.6c8.3,0,15-6.7,15-15V374.8c0-13.9,11.3-25.1,25.1-25.1h48.1c13.9,0,25.1,11.3,25.1,25.1V495
	c0,8.3,6.7,15,15,15h81.6c30.4,0,55.1-24.7,55.1-55.1V301.6h7.7c12.6,0,24.4-4.9,33.3-13.8C516.5,269.4,516.5,239.6,498.2,221.3z
	 M477,266.6c-3.2,3.2-7.5,5-12.1,5h-22.7c-8.3,0-15,6.7-15,15v168.4c0,13.8-11.3,25.1-25.1,25.1h-66.6V374.8
	c0-30.4-24.7-55.1-55.1-55.1h-48.1c-30.4,0-55.1,24.7-55.1,55.1v105.3h-66.6c-13.8,0-25.1-11.3-25.1-25.1V286.6c0-8.3-6.7-15-15-15
	H48.4c-0.2,0-0.5,0-0.7,0c-4.5-0.1-8.6-1.8-11.8-5c-6.7-6.7-6.7-17.5,0-24.2c0,0,0,0,0,0l0,0L244.4,34c3.2-3.2,7.5-5,12.1-5
	c4.6,0,8.9,1.8,12.1,5L477,242.3c0,0,0.1,0.1,0.1,0.1C483.7,249.1,483.7,259.9,477,266.6z"/>
</svg>
