<?xml version="1.0" encoding="utf-8"?>
<!-- Generator: Adobe Illustrator 24.1.2, SVG Export Plug-In . SVG Version: 6.00 Build 0)  -->
<svg version="1.1" id="Calque_1" xmlns="http://www.w3.org/2000/svg" xmlns:xlink="http://www.w3.org/1999/xlink" x="0px" y="0px"
	 viewBox="0 0 92.1 92.1" fill="#00CCFF" xml:space="preserve">
<g>
	<path d="M92.1,46c0,2.5-1,4.8-2.7,6.6c-1.8,1.8-4.1,2.7-6.6,2.7h-0.4v26.1c0,5.9-4.8,10.7-10.7,10.7H57.3c-2,0-3.7-1.6-3.7-3.6
		V67.3c0-1.9-1.5-3.4-3.4-3.4h-8.5c-1.9,0-3.4,1.5-3.4,3.4v21.2c0,2-1.6,3.6-3.6,3.6H20.3c-5.9,0-10.7-4.8-10.7-10.7V55.3H9.1
		c-0.1,0-0.2,0-0.3,0c-2.3-0.1-4.5-1-6.1-2.7c-3.6-3.6-3.6-9.5,0-13.1L39.5,2.7c3.6-3.6,9.5-3.6,13.2,0l36.8,36.8
		C91.1,41.2,92.1,43.5,92.1,46z"/>
</g>
</svg>
