<?xml version="1.0" encoding="utf-8"?>
<!-- Generator: Adobe Illustrator 24.1.2, SVG Export Plug-In . SVG Version: 6.00 Build 0)  -->
<svg version="1.1" id="Layer_1" xmlns="http://www.w3.org/2000/svg" xmlns:xlink="http://www.w3.org/1999/xlink" x="0px" y="0px"
	 viewBox="0 0 330 330" fill="#00CCFF" xml:space="preserve">
<g id="XMLID_31_">
	<path d="M315,0H15C6.7,0,0,6.7,0,15v300c0,8.3,6.7,15,15,15h300c8.3,0,15-6.7,15-15V15C330,6.7,323.3,0,315,0z M255,180h-75v75
		c0,8.3-6.7,15-15,15s-15-6.7-15-15v-75H75c-8.3,0-15-6.7-15-15s6.7-15,15-15h75V75c0-8.3,6.7-15,15-15s15,6.7,15,15v75h75
		c8.3,0,15,6.7,15,15S263.3,180,255,180z"/>
</g>
</svg>
