<?xml version="1.0" encoding="utf-8"?>
<!-- Generator: Adobe Illustrator 24.1.2, SVG Export Plug-In . SVG Version: 6.00 Build 0)  -->
<svg version="1.1" id="Calque_1" xmlns="http://www.w3.org/2000/svg" xmlns:xlink="http://www.w3.org/1999/xlink" x="0px" y="0px"
	 viewBox="0 0 82.1 82.1" style="enable-background:new 0 0 82.1 82.1;" xml:space="preserve">
<g>
	<path id="XMLID_2_" d="M77.7,1.5H4.4c-1.6,0-2.9,1.3-2.9,2.9v73.3c0,1.6,1.3,2.9,2.9,2.9h73.3c1.6,0,2.9-1.3,2.9-2.9V4.4
		C80.6,2.8,79.3,1.5,77.7,1.5z M74.8,74.8H7.3V7.3h67.4V74.8z"/>
</g>
<g>
	<path d="M65.9,41c0,1.6-1.3,2.9-2.9,2.9H44V63c0,1.6-1.3,2.9-2.9,2.9s-2.9-1.3-2.9-2.9V44H18.9c-1.5-0.1-2.8-1.3-2.8-2.9
		c0-1.6,1.3-2.9,2.9-2.9h19.1V19.1c0-1.6,1.3-2.9,2.9-2.9c1.6,0,2.9,1.3,2.9,2.9v19.1H63C64.6,38.1,65.9,39.4,65.9,41z"/>
</g>
</svg>
