<?xml version="1.0" encoding="utf-8"?>
<!-- Generator: Adobe Illustrator 24.1.2, SVG Export Plug-In . SVG Version: 6.00 Build 0)  -->
<svg version="1.1" id="Calque_1" xmlns="http://www.w3.org/2000/svg" xmlns:xlink="http://www.w3.org/1999/xlink" x="0px" y="0px"
	 viewBox="0 0 92.4 80"  fill="#00CCFF" xml:space="preserve">
<style type="text/css">
	.st0{fill:#FFFFFF;}
</style>
<g id="user_5_" transform="translate(0 -34.462)">
	<g id="Groupe_79" transform="translate(0 34.462)">
		<g id="Groupe_78" transform="translate(0 0)">
			<path d="M92.4,8v49.8c0,4.4-3.6,8-8,8H58.2l-9.9,13.2c-0.2,0.2-0.3,0.4-0.5,0.5c-1.2,0.9-2.8,0.7-3.7-0.5l-9.9-13.2H8
				c-4.4,0-8-3.6-8-8V8c0-4.4,3.6-8,8-8h76.4C88.8,0,92.4,3.6,92.4,8z"/>
		</g>
	</g>
	<g id="Groupe_81" transform="translate(25.77 43.348)">
		<g id="Groupe_80">
			<path id="Tracé_159" class="st0" d="M29.2,23.3c5.5-4.9,6.1-13.3,1.2-18.8S17.2-1.6,11.6,3.3s-6.1,13.3-1.2,18.8
				c0.4,0.4,0.8,0.8,1.2,1.2C4.5,26.7,0,33.9,0,41.8c0,1.5,1.2,2.7,2.7,2.7l0,0h35.5c1.5,0,2.7-1.2,2.7-2.7l0,0
				C40.9,33.9,36.3,26.7,29.2,23.3z M20.4,5.3c4.4,0,8,3.6,8,8s-3.6,8-8,8s-8-3.6-8-8C12.4,8.9,16,5.3,20.4,5.3z M5.6,39.1
				c1.5-8.2,9.3-13.7,17.5-12.2c6.2,1.1,11.1,6,12.2,12.2H5.6z"/>
		</g>
	</g>
</g>
</svg>
