<?xml version="1.0" encoding="utf-8"?>
<!-- Generator: Adobe Illustrator 24.1.2, SVG Export Plug-In . SVG Version: 6.00 Build 0)  -->
<svg version="1.1" id="Calque_1" xmlns="http://www.w3.org/2000/svg" xmlns:xlink="http://www.w3.org/1999/xlink" x="0px" y="0px"
	 viewBox="0 0 92.4 80" style="enable-background:new 0 0 92.4 80;" xml:space="preserve">
<g id="user_5_" transform="translate(0 -34.462)">
	<g id="Groupe_79" transform="translate(0 34.462)">
		<g id="Groupe_78" transform="translate(0 0)">
			<path id="Tracé_158" d="M84.4,0H8C3.6,0,0,3.6,0,8v49.8c0,4.4,3.6,8,8,8h26.2l9.9,13.2c0.9,1.2,2.6,1.4,3.7,0.5
				c0.2-0.2,0.4-0.3,0.5-0.5l9.9-13.2h26.2c4.4,0,8-3.6,8-8V8C92.4,3.6,88.8,0,84.4,0z M87.1,57.8c0,1.5-1.2,2.7-2.7,2.7H56.9
				c-0.8,0-1.6,0.4-2.1,1.1l-8.5,11.4l-8.5-11.4c-0.5-0.7-1.3-1.1-2.1-1.1H8c-1.5,0-2.7-1.2-2.7-2.7V8c0-1.5,1.2-2.7,2.7-2.7h76.4
				c1.5,0,2.7,1.2,2.7,2.7L87.1,57.8z"/>
		</g>
	</g>
	<g id="Groupe_81" transform="translate(25.77 43.348)">
		<g id="Groupe_80">
			<path id="Tracé_159" d="M29.2,23.3c5.5-4.9,6.1-13.3,1.2-18.8S17.2-1.6,11.6,3.3s-6.1,13.3-1.2,18.8c0.4,0.4,0.8,0.8,1.2,1.2
				C4.5,26.7,0,33.9,0,41.8c0,1.5,1.2,2.7,2.7,2.7l0,0h35.5c1.5,0,2.7-1.2,2.7-2.7l0,0C40.9,33.9,36.3,26.7,29.2,23.3z M20.4,5.3
				c4.4,0,8,3.6,8,8s-3.6,8-8,8s-8-3.6-8-8C12.4,8.9,16,5.3,20.4,5.3z M5.6,39.1c1.5-8.2,9.3-13.7,17.5-12.2
				c6.2,1.1,11.1,6,12.2,12.2H5.6z"/>
		</g>
	</g>
</g>
</svg>
