<svg xmlns="http://www.w3.org/2000/svg" height="512pt" version="1.1" viewBox="-22 0 512 512" width="512pt">
<g id="surface1">
<path d="M 449.460938 65.621094 L 291.203125 65.621094 L 291.203125 97.300781 L 432.929688 97.300781 L 422.832031 137.140625 C 410.214844 186.925781 371.136719 224.3125 322.886719 235.851562 L 291.203125 239.367188 L 291.203125 271.253906 C 367.851562 271.253906 434.714844 219.222656 453.539062 144.925781 L 467.699219 89.058594 C 470.710938 77.171875 461.726562 65.621094 449.460938 65.621094 Z M 449.460938 65.621094 " style=" stroke:none;fill-rule:nonzero;fill:rgb(96.078431%,70.980392%,33.72549%);fill-opacity:1;" />
<path d="M 18.824219 65.621094 L 177.078125 65.621094 L 177.078125 97.300781 L 35.355469 97.300781 L 45.449219 137.140625 C 58.066406 186.925781 97.148438 224.3125 145.398438 235.851562 L 177.078125 239.367188 L 177.078125 271.253906 C 100.433594 271.253906 33.570312 219.222656 14.742188 144.925781 L 0.585938 89.058594 C -2.425781 77.171875 6.558594 65.621094 18.824219 65.621094 Z M 18.824219 65.621094 " style=" stroke:none;fill-rule:nonzero;fill:rgb(96.078431%,70.980392%,33.72549%);fill-opacity:1;" />
<path d="M 257.960938 283.6875 L 210.320312 283.6875 C 210.320312 283.6875 217.734375 360.25 156.703125 424.441406 L 311.578125 424.441406 C 250.546875 360.25 257.960938 283.6875 257.960938 283.6875 Z M 257.960938 283.6875 " style=" stroke:none;fill-rule:nonzero;fill:rgb(99.607843%,81.568627%,40%);fill-opacity:1;" />
<path d="M 257.960938 283.6875 L 234.140625 283.6875 C 234.140625 283.6875 207.363281 376.953125 258.503906 424.441406 L 311.578125 424.441406 C 250.546875 360.25 257.960938 283.6875 257.960938 283.6875 Z M 257.960938 283.6875 " style=" stroke:none;fill-rule:nonzero;fill:rgb(96.078431%,70.980392%,33.72549%);fill-opacity:1;" />
<path d="M 103.164062 0 C 103.160156 54.441406 103.152344 108.96875 103.152344 109.691406 C 103.152344 219.964844 177.164062 282.65625 213.921875 306.988281 C 226.171875 315.097656 242.113281 315.097656 254.359375 306.988281 C 291.117188 282.65625 365.132812 219.964844 365.132812 109.691406 C 365.132812 108.96875 365.121094 54.441406 365.117188 0 Z M 103.164062 0 " style=" stroke:none;fill-rule:nonzero;fill:rgb(99.607843%,81.568627%,40%);fill-opacity:1;" />
<path d="M 365.117188 0 L 311.566406 0 C 311.570312 54.441406 311.578125 108.96875 311.578125 109.691406 C 311.578125 213.746094 245.679688 275.425781 207.367188 302.496094 C 209.65625 304.113281 211.851562 305.617188 213.925781 306.988281 C 226.171875 315.097656 242.113281 315.097656 254.363281 306.988281 C 291.117188 282.652344 365.132812 219.964844 365.132812 109.691406 C 365.132812 108.96875 365.121094 54.441406 365.117188 0 Z M 365.117188 0 " style=" stroke:none;fill-rule:nonzero;fill:rgb(96.078431%,70.980392%,33.72549%);fill-opacity:1;" />
<path d="M 376.214844 37.578125 L 92.070312 37.578125 C 87.066406 37.578125 83.011719 33.523438 83.011719 28.519531 L 83.011719 9.0625 C 83.011719 4.058594 87.066406 0 92.070312 0 L 376.214844 0 C 381.21875 0 385.273438 4.058594 385.273438 9.0625 L 385.273438 28.515625 C 385.273438 33.523438 381.21875 37.578125 376.214844 37.578125 Z M 376.214844 37.578125 " style=" stroke:none;fill-rule:nonzero;fill:rgb(96.078431%,70.980392%,33.72549%);fill-opacity:1;" />
<path d="M 376.214844 0 L 331.839844 0 L 331.839844 37.578125 L 376.214844 37.578125 C 381.21875 37.578125 385.273438 33.523438 385.273438 28.519531 L 385.273438 9.0625 C 385.273438 4.058594 381.21875 0 376.214844 0 Z M 376.214844 0 " style=" stroke:none;fill-rule:nonzero;fill:rgb(90.980392%,63.529412%,27.45098%);fill-opacity:1;" />
<path d="M 339.945312 512 L 128.339844 512 C 123.949219 512 120.390625 508.441406 120.390625 504.054688 L 120.390625 420.136719 C 120.390625 415.75 123.949219 412.191406 128.339844 412.191406 L 339.945312 412.191406 C 344.335938 412.191406 347.890625 415.75 347.890625 420.136719 L 347.890625 504.054688 C 347.890625 508.441406 344.335938 512 339.945312 512 Z M 339.945312 512 " style=" stroke:none;fill-rule:nonzero;fill:rgb(23.529412%,33.72549%,40%);fill-opacity:1;" />
<path d="M 339.945312 412.191406 L 294.457031 412.191406 L 294.457031 512 L 339.945312 512 C 344.335938 512 347.890625 508.441406 347.890625 504.054688 L 347.890625 420.136719 C 347.890625 415.75 344.335938 412.191406 339.945312 412.191406 Z M 339.945312 412.191406 " style=" stroke:none;fill-rule:nonzero;fill:rgb(9.803922%,26.666667%,31.764706%);fill-opacity:1;" />
<path d="M 155.828125 474.597656 L 155.828125 449.59375 C 155.828125 448.507812 156.707031 447.628906 157.792969 447.628906 L 310.488281 447.628906 C 311.574219 447.628906 312.453125 448.507812 312.453125 449.59375 L 312.453125 474.597656 C 312.453125 475.683594 311.574219 476.5625 310.488281 476.5625 L 157.792969 476.5625 C 156.710938 476.5625 155.828125 475.683594 155.828125 474.597656 Z M 155.828125 474.597656 " style=" stroke:none;fill-rule:nonzero;fill:rgb(94.901961%,94.901961%,94.901961%);fill-opacity:1;" />
<path d="M 236.738281 75.121094 L 253.148438 125.625 C 253.511719 126.75 254.558594 127.511719 255.742188 127.511719 L 308.84375 127.511719 C 311.488281 127.511719 312.589844 130.894531 310.449219 132.449219 L 267.488281 163.660156 C 266.53125 164.355469 266.132812 165.589844 266.496094 166.710938 L 282.90625 217.214844 C 283.722656 219.730469 280.847656 221.820312 278.707031 220.265625 L 235.746094 189.054688 C 234.789062 188.359375 233.496094 188.359375 232.539062 189.054688 L 189.578125 220.265625 C 187.441406 221.820312 184.5625 219.730469 185.378906 217.214844 L 201.789062 166.710938 C 202.152344 165.589844 201.753906 164.355469 200.796875 163.660156 L 157.835938 132.449219 C 155.699219 130.894531 156.796875 127.511719 159.441406 127.511719 L 212.542969 127.511719 C 213.726562 127.511719 214.773438 126.75 215.140625 125.625 L 231.546875 75.121094 C 232.363281 72.605469 235.921875 72.605469 236.738281 75.121094 Z M 236.738281 75.121094 " style=" stroke:none;fill-rule:nonzero;fill:rgb(94.901961%,94.901961%,94.901961%);fill-opacity:1;" />
</g>
</svg>