<svg xmlns="http://www.w3.org/2000/svg" height="512pt" version="1.1" viewBox="-43 0 512 512" width="512pt">
<g id="surface1">
<path d="M 250.683594 512 L 174.578125 512 C 169.1875 512 164.601562 508.074219 163.769531 502.753906 L 159.273438 473.996094 L 265.988281 473.996094 L 261.492188 502.753906 C 260.660156 508.074219 256.074219 512 250.683594 512 Z M 250.683594 512 " style=" stroke:none;fill-rule:nonzero;fill:rgb(20.392157%,29.019608%,36.470588%);fill-opacity:1;" />
<path d="M 342.835938 227.882812 C 342.835938 157.488281 286.972656 100.140625 217.160156 97.753906 C 144.671875 95.277344 83.210938 153.925781 82.433594 226.453125 C 82.140625 253.53125 90.117188 278.734375 103.996094 299.683594 C 134.03125 345.03125 150.828125 397.847656 150.828125 452.242188 L 150.828125 457.960938 L 274.433594 457.960938 L 274.433594 449.578125 C 274.433594 396.316406 291.058594 344.628906 320.773438 300.425781 C 334.707031 279.695312 342.835938 254.738281 342.835938 227.882812 Z M 342.835938 227.882812 " style=" stroke:none;fill-rule:nonzero;fill:rgb(98.823529%,91.764706%,40.784314%);fill-opacity:1;" />
<path d="M 217.160156 97.753906 C 206.664062 97.394531 196.40625 98.324219 186.527344 100.386719 C 245.714844 112.636719 290.203125 165.0625 290.203125 227.882812 C 290.203125 254.738281 282.074219 279.695312 268.140625 300.425781 C 238.425781 344.628906 221.800781 396.316406 221.800781 449.578125 L 221.800781 457.964844 L 274.4375 457.964844 L 274.4375 449.578125 C 274.4375 396.316406 291.0625 344.628906 320.773438 300.425781 C 334.707031 279.695312 342.839844 254.738281 342.839844 227.882812 C 342.835938 157.488281 286.972656 100.140625 217.160156 97.753906 Z M 217.160156 97.753906 " style=" stroke:none;fill-rule:nonzero;fill:rgb(99.607843%,81.568627%,40%);fill-opacity:1;" />
<path d="M 229.648438 381.25 L 195.613281 381.25 C 191.488281 381.25 188.113281 377.964844 188.007812 373.839844 C 187.992188 373.335938 186.386719 322.515625 166.554688 281.109375 C 164.738281 277.316406 166.34375 272.773438 170.132812 270.957031 C 173.921875 269.136719 178.46875 270.742188 180.285156 274.53125 C 197.109375 309.660156 201.632812 349.726562 202.816406 366.027344 L 222.441406 366.027344 C 223.628906 349.730469 228.152344 309.660156 244.976562 274.53125 C 246.789062 270.742188 251.335938 269.140625 255.128906 270.957031 C 258.917969 272.773438 260.519531 277.316406 258.703125 281.109375 C 238.828125 322.613281 237.265625 373.332031 237.253906 373.839844 C 237.144531 377.964844 233.773438 381.25 229.648438 381.25 Z M 229.648438 381.25 " style=" stroke:none;fill-rule:nonzero;fill:rgb(85.882353%,85.098039%,81.960784%);fill-opacity:1;" />
<path d="M 238.527344 435.183594 L 186.730469 435.183594 L 186.730469 369.835938 C 186.730469 366.796875 189.195312 364.335938 192.230469 364.335938 L 233.03125 364.335938 C 236.066406 364.335938 238.53125 366.796875 238.53125 369.835938 L 238.53125 435.183594 Z M 238.527344 435.183594 " style=" stroke:none;fill-rule:nonzero;fill:rgb(99.215686%,44.313725%,36.078431%);fill-opacity:1;" />
<path d="M 267.730469 487.898438 L 157.53125 487.898438 C 148.507812 487.898438 141.191406 480.582031 141.191406 471.558594 L 141.191406 406.527344 C 141.191406 403.277344 143.828125 400.640625 147.078125 400.640625 L 278.183594 400.640625 C 281.433594 400.640625 284.070312 403.277344 284.070312 406.527344 L 284.070312 471.558594 C 284.070312 480.582031 276.753906 487.898438 267.730469 487.898438 Z M 267.730469 487.898438 " style=" stroke:none;fill-rule:nonzero;fill:rgb(23.529412%,33.72549%,40%);fill-opacity:1;" />
<path d="M 278.183594 400.640625 L 231.4375 400.640625 L 231.4375 477.445312 C 231.4375 483.21875 226.757812 487.898438 220.984375 487.898438 L 267.730469 487.898438 C 276.753906 487.898438 284.070312 480.582031 284.070312 471.558594 L 284.070312 406.527344 C 284.070312 403.277344 281.433594 400.640625 278.183594 400.640625 Z M 278.183594 400.640625 " style=" stroke:none;fill-rule:nonzero;fill:rgb(16.470588%,24.705882%,30.980392%);fill-opacity:1;" />
<path d="M 141.191406 421.21875 L 141.191406 436.441406 L 284.070312 436.441406 L 284.070312 421.21875 Z M 141.191406 421.21875 " style=" stroke:none;fill-rule:nonzero;fill:rgb(32.156863%,43.921569%,49.803922%);fill-opacity:1;" />
<path d="M 141.191406 450.351562 L 284.070312 450.351562 L 284.070312 465.574219 L 141.191406 465.574219 Z M 141.191406 450.351562 " style=" stroke:none;fill-rule:nonzero;fill:rgb(32.156863%,43.921569%,49.803922%);fill-opacity:1;" />
<path d="M 238.769531 287.652344 C 233.160156 287.652344 229.902344 285.441406 227.957031 284.117188 C 226.675781 283.246094 226.625 283.214844 225.695312 283.214844 C 224.769531 283.214844 224.71875 283.246094 223.4375 284.117188 C 221.492188 285.4375 218.234375 287.652344 212.625 287.652344 C 207.015625 287.652344 203.757812 285.4375 201.8125 284.117188 C 200.53125 283.246094 200.480469 283.214844 199.554688 283.214844 C 198.628906 283.214844 198.578125 283.246094 197.300781 284.117188 C 195.355469 285.4375 192.097656 287.652344 186.488281 287.652344 C 180.882812 287.652344 177.625 285.4375 175.679688 284.117188 C 174.398438 283.246094 174.347656 283.214844 173.421875 283.214844 C 169.21875 283.214844 165.808594 279.804688 165.808594 275.601562 C 165.808594 271.398438 169.21875 267.988281 173.421875 267.988281 C 179.027344 267.988281 182.285156 270.203125 184.230469 271.523438 C 185.511719 272.394531 185.5625 272.425781 186.488281 272.425781 C 187.414062 272.425781 187.464844 272.394531 188.746094 271.523438 C 190.691406 270.203125 193.949219 267.988281 199.554688 267.988281 C 205.164062 267.988281 208.421875 270.203125 210.367188 271.523438 C 211.648438 272.394531 211.699219 272.425781 212.625 272.425781 C 213.550781 272.425781 213.601562 272.394531 214.882812 271.523438 C 216.828125 270.199219 220.089844 267.988281 225.695312 267.988281 C 231.304688 267.988281 234.5625 270.199219 236.507812 271.523438 C 237.789062 272.394531 237.839844 272.429688 238.769531 272.429688 C 239.695312 272.429688 239.746094 272.394531 241.027344 271.523438 C 242.976562 270.199219 246.234375 267.988281 251.839844 267.988281 C 256.046875 267.988281 259.453125 271.398438 259.453125 275.601562 C 259.453125 279.804688 256.042969 283.214844 251.839844 283.214844 C 250.914062 283.214844 250.863281 283.246094 249.582031 284.117188 C 247.632812 285.441406 244.378906 287.652344 238.769531 287.652344 Z M 238.769531 287.652344 " style=" stroke:none;fill-rule:nonzero;fill:rgb(85.882353%,85.098039%,81.960784%);fill-opacity:1;" />
<path d="M 211.796875 48.515625 C 207.59375 48.515625 204.1875 45.105469 204.1875 40.902344 L 204.1875 7.609375 C 204.1875 3.40625 207.59375 0 211.796875 0 C 216.003906 0 219.410156 3.40625 219.410156 7.609375 L 219.410156 40.902344 C 219.410156 45.105469 216.003906 48.515625 211.796875 48.515625 Z M 211.796875 48.515625 " style=" stroke:none;fill-rule:nonzero;fill:rgb(99.607843%,81.568627%,40%);fill-opacity:1;" />
<path d="M 417.652344 221.074219 L 384.359375 221.074219 C 380.15625 221.074219 376.746094 217.667969 376.746094 213.464844 C 376.746094 209.261719 380.15625 205.851562 384.359375 205.851562 L 417.652344 205.851562 C 421.855469 205.851562 425.261719 209.261719 425.261719 213.464844 C 425.261719 217.667969 421.855469 221.074219 417.652344 221.074219 Z M 417.652344 221.074219 " style=" stroke:none;fill-rule:nonzero;fill:rgb(99.607843%,81.568627%,40%);fill-opacity:1;" />
<path d="M 39.238281 221.074219 L 7.609375 221.074219 C 3.40625 221.074219 0 217.667969 0 213.464844 C 0 209.261719 3.40625 205.851562 7.609375 205.851562 L 39.238281 205.851562 C 43.441406 205.851562 46.847656 209.261719 46.847656 213.464844 C 46.851562 217.667969 43.441406 221.074219 39.238281 221.074219 Z M 39.238281 221.074219 " style=" stroke:none;fill-rule:nonzero;fill:rgb(99.607843%,81.568627%,40%);fill-opacity:1;" />
<path d="M 357.359375 366.632812 C 355.410156 366.632812 353.460938 365.890625 351.976562 364.40625 L 328.433594 340.863281 C 325.460938 337.890625 325.460938 333.070312 328.433594 330.101562 C 331.40625 327.128906 336.226562 327.128906 339.199219 330.101562 L 362.738281 353.640625 C 365.714844 356.613281 365.714844 361.433594 362.738281 364.40625 C 361.253906 365.890625 359.304688 366.632812 357.359375 366.632812 Z M 357.359375 366.632812 " style=" stroke:none;fill-rule:nonzero;fill:rgb(99.607843%,81.568627%,40%);fill-opacity:1;" />
<path d="M 89.78125 99.054688 C 87.832031 99.054688 85.882812 98.3125 84.398438 96.828125 L 60.859375 73.285156 C 57.886719 70.3125 57.886719 65.492188 60.859375 62.523438 C 63.828125 59.550781 68.648438 59.550781 71.621094 62.523438 L 95.160156 86.0625 C 98.136719 89.035156 98.136719 93.855469 95.160156 96.828125 C 93.675781 98.3125 91.726562 99.054688 89.78125 99.054688 Z M 89.78125 99.054688 " style=" stroke:none;fill-rule:nonzero;fill:rgb(99.607843%,81.568627%,40%);fill-opacity:1;" />
<path d="M 333.816406 99.054688 C 331.867188 99.054688 329.921875 98.3125 328.433594 96.828125 C 325.460938 93.855469 325.460938 89.035156 328.433594 86.0625 L 351.976562 62.523438 C 354.949219 59.550781 359.769531 59.550781 362.738281 62.523438 C 365.714844 65.492188 365.714844 70.3125 362.738281 73.285156 L 339.199219 96.828125 C 337.714844 98.3125 335.765625 99.054688 333.816406 99.054688 Z M 333.816406 99.054688 " style=" stroke:none;fill-rule:nonzero;fill:rgb(99.607843%,81.568627%,40%);fill-opacity:1;" />
<path d="M 66.238281 366.632812 C 64.292969 366.632812 62.34375 365.890625 60.859375 364.40625 C 57.886719 361.433594 57.886719 356.613281 60.859375 353.640625 L 84.398438 330.101562 C 87.371094 327.128906 92.191406 327.128906 95.160156 330.101562 C 98.136719 333.070312 98.136719 337.890625 95.160156 340.863281 L 71.621094 364.40625 C 70.136719 365.890625 68.1875 366.632812 66.238281 366.632812 Z M 66.238281 366.632812 " style=" stroke:none;fill-rule:nonzero;fill:rgb(99.607843%,81.568627%,40%);fill-opacity:1;" />
</g>
</svg>