<svg id="Capa_1" enable-background="new 0 0 512 512" height="512" viewBox="0 0 512 512" width="512" xmlns="http://www.w3.org/2000/svg"><g><g><g><path d="m181.367 285.614c-1.296 0-2.61-.14-3.928-.433-84.554-18.79-120.725-72.56-136.18-114.36-16.454-44.502-13.125-84.464-12.975-86.143.829-9.298 8.62-16.426 17.956-16.426h89.168c10.772 0 19.473 8.825 18.57 19.56-.778 9.239-8.523 16.495-17.963 16.495h-64.118c-4.214 0-7.504 3.622-7.112 7.818 1.21 12.976 4.107 29.863 10.731 47.364 18.127 47.895 55.051 78.342 109.746 90.496 9.719 2.16 15.847 11.79 13.687 21.509-1.868 8.401-9.319 14.119-17.582 14.12z" fill="#fe9738"/></g><g><path d="m330.633 285.614c1.296 0 2.61-.14 3.928-.433 84.554-18.79 120.725-72.56 136.18-114.36 16.454-44.502 13.125-84.464 12.975-86.143-.829-9.298-8.62-16.426-17.956-16.426h-89.168c-10.772 0-19.473 8.825-18.57 19.56.778 9.239 8.523 16.495 17.963 16.495h64.118c4.214 0 7.504 3.622 7.112 7.818-1.21 12.976-4.107 29.863-10.731 47.364-18.127 47.895-55.051 78.342-109.746 90.496-9.719 2.16-15.847 11.79-13.687 21.509 1.868 8.401 9.319 14.119 17.582 14.12z" fill="#fe9738"/></g></g><path d="m291.494 319.632 12.21-20.157h-95.409l12.21 20.157c8.522 14.068 13.106 30.945 13.106 48.256 0 10.575-1.711 21.053-5.041 30.866l-7.617 22.447h70.093l-7.617-22.447c-3.33-9.813-5.041-20.291-5.041-30.866.001-17.311 4.584-34.188 13.106-48.256z" fill="#fe9738"/><path d="m281.749 342.543c-2.208 8.142-3.355 16.689-3.355 25.345 0 10.579 1.705 21.049 5.038 30.864l7.618 22.448h-22.23l-7.618-22.448c-3.322-9.814-5.038-20.284-5.038-30.864 0-8.656 1.148-17.202 3.355-25.345 2.219-8.142 5.486-15.869 9.749-22.907l12.219-20.164h22.219l-12.208 20.164c-4.263 7.038-7.541 14.765-9.749 22.907z" fill="#fe860a"/><path d="m256 313.79c-74.782 0-135.405-60.623-135.405-135.404v-142.834h270.809v142.834c0 74.782-60.622 135.404-135.404 135.404z" fill="#fac600"/><path d="m391.401 42.977v135.411c0 74.777-60.623 135.4-135.401 135.4-3.853 0-7.674-.165-11.445-.474 69.431-5.81 123.966-64.002 123.966-134.927v-135.41z" fill="#e8b800"/><path d="m400.428 42.981h-288.856c-5.262 0-9.528-4.266-9.528-9.528v-23.92c0-5.262 4.266-9.528 9.528-9.528h288.855c5.262 0 9.528 4.266 9.528 9.528v23.92c.001 5.262-4.265 9.528-9.527 9.528z" fill="#fe9738"/><path d="m409.953 9.529v23.92c0 5.264-4.265 9.529-9.529 9.529h-21.901c5.264 0 9.529-4.265 9.529-9.529v-23.92c0-5.254-4.265-9.529-9.529-9.529h21.901c5.264 0 9.529 4.275 9.529 9.529z" fill="#fe860a"/><g><path d="m265.584 120.836 9.908 20.075c1.557 3.154 4.566 5.341 8.047 5.847l22.155 3.219c8.766 1.274 12.267 12.047 5.923 18.23l-16.031 15.627c-2.519 2.455-3.668 5.993-3.074 9.46l3.784 22.065c1.497 8.731-7.667 15.389-15.507 11.267l-19.816-10.418c-3.114-1.637-6.833-1.637-9.947 0l-19.816 10.418c-7.841 4.122-17.005-2.536-15.507-11.267l3.784-22.065c.595-3.467-.555-7.005-3.074-9.46l-16.031-15.627c-6.343-6.183-2.843-16.956 5.923-18.23l22.155-3.219c3.481-.506 6.49-2.692 8.047-5.847l9.908-20.075c3.921-7.944 15.249-7.944 19.169 0z" fill="#f9f7f8"/><path d="m295.588 183.834c-2.524 2.452-3.667 5.995-3.08 9.457l3.791 22.065c1.494 8.736-7.664 15.39-15.514 11.27l-8.148-4.285c1.751-2.534 2.596-5.758 1.998-9.261l-4.471-26.073c-.7-4.09.659-8.272 3.636-11.177l18.944-18.46c2.555-2.493 3.76-5.625 3.822-8.725l9.127 1.329c8.766 1.277 12.269 12.053 5.923 18.233z" fill="#efedef"/></g><path d="m338.249 479.539h-164.498v-41.072c0-14.2 11.512-25.712 25.712-25.712h113.073c14.2 0 25.712 11.512 25.712 25.712v41.072z" fill="#9c9c9c"/><path d="m338.246 438.465v23.909h-20.263v-23.909c0-14.195-11.517-25.712-25.712-25.712h20.263c14.205 0 25.712 11.517 25.712 25.712z" fill="#838383"/><path d="m374.093 512h-236.186c-3.681 0-6.665-2.984-6.665-6.665v-36.292c0-3.681 2.984-6.665 6.665-6.665h236.186c3.681 0 6.665 2.984 6.665 6.665v36.292c0 3.681-2.984 6.665-6.665 6.665z" fill="#5a5a5a"/><path d="m380.759 469.04v36.292c0 3.688-2.987 6.665-6.665 6.665h-20.603c3.678 0 6.665-2.977 6.665-6.665v-36.292c0-3.678-2.987-6.665-6.665-6.665h20.603c3.678 0 6.665 2.987 6.665 6.665z" fill="#444"/></g></svg>