<?xml version="1.0" encoding="utf-8"?>
<!-- Generator: Adobe Illustrator 24.1.2, SVG Export Plug-In . SVG Version: 6.00 Build 0)  -->
<svg version="1.1" id="Calque_1" xmlns="http://www.w3.org/2000/svg" xmlns:xlink="http://www.w3.org/1999/xlink" x="0px" y="0px"
	 viewBox="0 0 573.1 670.2" style="enable-background:new 0 0 573.1 670.2;" xml:space="preserve">
<style type="text/css">
	.st0{fill:url(#SVGID_1_);}
</style>
<linearGradient id="SVGID_1_" gradientUnits="userSpaceOnUse" x1="640.8118" y1="1252.5594" x2="18.4671" y2="-272.3326">
	<stop  offset="0.4544" style="stop-color:#00CCFF"/>
	<stop  offset="0.5483" style="stop-color:#03C7FC"/>
	<stop  offset="0.6647" style="stop-color:#0AB7F5"/>
	<stop  offset="0.7929" style="stop-color:#179EE8"/>
	<stop  offset="0.9289" style="stop-color:#287BD7"/>
	<stop  offset="1" style="stop-color:#3366CC"/>
</linearGradient>
<path class="st0" d="M89.6,509.2c117,32.1,188.6-26.6,188.6-26.6s-19.5-145.5,8.1-267.4c35.8,291.8,141.3,455,141.3,455
	c87,1.4,145.6-66.5,145.6-66.5S434.9,318.8,384.2,9.2C332.8-5.5,250.9-4.1,212.5,24.3C156.4,172.7,157,322.5,157,322.5
	s-24.3-79.7-14.4-219.4C97.1,73.8,21.3,93.3,0,107.6C9.1,374.8,89.6,509.2,89.6,509.2z"/>
</svg>
