<?xml version="1.0" encoding="utf-8"?>
<!-- Generator: Adobe Illustrator 24.1.2, SVG Export Plug-In . SVG Version: 6.00 Build 0)  -->
<svg version="1.1" id="Calque_1" xmlns="http://www.w3.org/2000/svg" xmlns:xlink="http://www.w3.org/1999/xlink" x="0px" y="0px"
	 viewBox="0 0 261.4 90" style="enable-background:new 0 0 261.4 90;" xml:space="preserve">
<style type="text/css">
	.st0{fill:url(#SVGID_1_);}
	.st1{fill:#232323;}
</style>
<g>
	<linearGradient id="SVGID_1_" gradientUnits="userSpaceOnUse" x1="86.044" y1="168.1854" x2="2.4796" y2="-36.567">
		<stop  offset="0.4544" style="stop-color:#00CCFF"/>
		<stop  offset="0.5483" style="stop-color:#03C7FC"/>
		<stop  offset="0.6647" style="stop-color:#0AB7F5"/>
		<stop  offset="0.7929" style="stop-color:#179EE8"/>
		<stop  offset="0.9289" style="stop-color:#287BD7"/>
		<stop  offset="1" style="stop-color:#3366CC"/>
	</linearGradient>
	<path class="st0" d="M12,68.4c15.7,4.3,25.3-3.6,25.3-3.6s-2.6-19.5,1.1-35.9c4.8,39.2,19,61.1,19,61.1C69.1,90.2,77,81.1,77,81.1
		S58.4,42.8,51.6,1.2c-6.9-2-17.9-1.8-23.1,2c-7.5,19.9-7.5,40-7.5,40s-3.3-10.7-1.9-29.5C13,9.9,2.9,12.5,0,14.4
		C1.2,50.3,12,68.4,12,68.4z"/>
	<g>
		<path class="st1" d="M139.8,17.7c0-2.7,2.2-5,4.9-5c2.7,0,5,2.3,5,5c0,2.7-2.2,4.9-5,4.9C142.1,22.6,139.8,20.4,139.8,17.7z
			 M140.8,57.3v-31h8v31H140.8z"/>
		<path class="st1" d="M151.1,57.3V12.1h8v45.3H151.1z"/>
		<path class="st1" d="M181.7,26.3h8.6l-11.3,31c-3.2,8.9-8.4,12.8-16.4,12.4v-7.4c4.3,0.1,6.6-1.7,8.1-6l-12.7-30h8.7l8.1,20.8
			L181.7,26.3z"/>
		<path class="st1" d="M215.4,26.3h8v31h-8v-3.7c-2.4,3-5.8,4.5-10.1,4.5c-4.2,0-7.7-1.6-10.7-4.7c-2.9-3.2-4.4-7.1-4.4-11.7
			c0-4.6,1.5-8.4,4.4-11.6c3-3.2,6.5-4.8,10.7-4.8c4.3,0,7.7,1.5,10.1,4.5V26.3z M206.8,50.6c2.5,0,4.5-0.8,6.1-2.4
			c1.7-1.7,2.5-3.8,2.5-6.3c0-2.5-0.8-4.7-2.5-6.3c-1.6-1.7-3.7-2.5-6.1-2.5c-2.5,0-4.5,0.8-6.1,2.5c-1.6,1.6-2.4,3.7-2.4,6.3
			c0,2.5,0.8,4.6,2.4,6.3C202.3,49.8,204.3,50.6,206.8,50.6z"/>
		<path class="st1" d="M233.7,31.7c1.5-4,5.2-6,9.4-6v8.9c-2.4-0.3-4.7,0.2-6.6,1.5c-1.9,1.3-2.9,3.4-2.9,6.4v14.8h-8v-31h8V31.7z"
			/>
		<path class="st1" d="M261.4,34h-7v12.9c0,3.3,2.4,3.4,7,3.2v7.3c-11,1.2-15-1.9-15-10.4V34H241v-7.7h5.4v-6.3l8-2.4v8.7h7V34z"/>
		<path class="st1" d="M104.5,13.9h-8V30c-2.4-3-5.7-4.5-10-4.5c-4.2,0-7.7,1.6-10.7,4.8c-2.9,3.2-4.4,7-4.4,11.6
			c0,4.6,1.5,8.5,4.4,11.7c3,3.2,6.6,4.7,10.7,4.7c4.3,0,7.7-1.5,10-4.5v3.7h8v-5.5c-1.6-3-2.5-6.3-2.5-10c0-3.7,0.8-7,2.5-9.9V13.9
			z M94.1,48.2c-1.6,1.6-3.7,2.4-6.1,2.4c-2.5,0-4.5-0.8-6.2-2.4c-1.6-1.7-2.4-3.8-2.4-6.3c0-2.5,0.8-4.6,2.4-6.3
			c1.7-1.7,3.7-2.5,6.2-2.5c2.5,0,4.5,0.8,6.1,2.5c1.6,1.6,2.4,3.7,2.4,6.3C96.5,44.4,95.7,46.5,94.1,48.2z"/>
		<g>
			<path class="st1" d="M130.5,26.3V30c-2.4-3-5.8-4.5-10.1-4.5c-4.2,0-7.7,1.6-10.7,4.8c-2.9,3.2-4.4,7-4.4,11.6
				c0,4.6,1.5,8.5,4.4,11.7c3,3.2,6.5,4.7,10.7,4.7c4.3,0,7.7-1.5,10.1-4.5v3.7h8v-31H130.5z M128,48.2c-1.6,1.6-3.7,2.4-6.1,2.4
				c-2.5,0-4.5-0.8-6.1-2.4c-1.6-1.7-2.4-3.8-2.4-6.3c0-2.5,0.8-4.6,2.4-6.3c1.6-1.7,3.7-2.5,6.1-2.5c2.5,0,4.5,0.8,6.1,2.5
				c1.7,1.6,2.5,3.7,2.5,6.3C130.5,44.4,129.6,46.5,128,48.2z"/>
		</g>
	</g>
</g>
</svg>
