<?xml version="1.0" encoding="utf-8"?>
<!-- Generator: Adobe Illustrator 24.1.2, SVG Export Plug-In . SVG Version: 6.00 Build 0)  -->
<svg version="1.1" id="Calque_1" xmlns="http://www.w3.org/2000/svg" xmlns:xlink="http://www.w3.org/1999/xlink" x="0px" y="0px"
	 viewBox="0 0 1125 972" style="enable-background:new 0 0 1125 972;" xml:space="preserve">
<style type="text/css">
	.st0{clip-path:url(#SVGID_2_);}
	.st1{fill:#2D2D30;}
	.st2{fill:#57565C;}
	.st3{fill:#3E3D42;}
	.st4{fill:#1D1D1F;}
	.st5{fill:#78B9EB;}
	.st6{fill:#96C8EF;}
	.st7{fill:#D1E7F8;}
	.st8{fill:#FFCD00;}
	.st9{fill:#FED2A4;}
	.st10{fill:#9B8E99;}
	.st11{fill:#8B8089;}
	.st12{fill:#FFBD86;}
	.st13{fill:#C9BFC8;}
	.st14{fill:#BAAFB9;}
	.st15{fill:#AA9EA9;}
	.st16{fill:#6CF5C2;}
	.st17{fill:#00F2A6;}
</style>
<g id="Groupe_32" transform="translate(-254 -1078)">
	<g>
		<defs>
			<rect id="SVGID_1_" x="254" y="1078" width="1125" height="972"/>
		</defs>
		<clipPath id="SVGID_2_">
			<use xlink:href="#SVGID_1_"  style="overflow:visible;"/>
		</clipPath>
		<g id="Groupe_de_masques_1" class="st0">
			<g id="photo-camera" transform="translate(606.932 1485.88) rotate(-14)">
				<g id="Groupe_23" transform="translate(282.42 16.634)">
					<path id="Tracé_96" class="st1" d="M176.1,21.5C170.1,8.4,157,0,142.5,0L58.2,0C43.7,0,30.6,8.4,24.6,21.5L0,74.6h200.7
						L176.1,21.5z"/>
					<path id="Tracé_97" class="st1" d="M351.7,83.4l-105.1,0V42.9c0-9.2,7.4-16.6,16.6-16.6l71.9,0c9.2,0,16.6,7.4,16.6,16.6
						L351.7,83.4L351.7,83.4z"/>
				</g>
				<path id="Tracé_98" class="st2" d="M677.5,131.5v301c-0.1,22.8-18.6,41.4-41.4,41.4H41.4C18.6,473.8,0.1,455.3,0,432.4l0-301
					C0.1,108.6,18.6,90.1,41.4,90l594.7,0C659,90.1,677.5,108.6,677.5,131.5z"/>
				<path id="Tracé_99" class="st3" d="M677.5,154.5v267.8h-58c-21.3-0.1-38.6-17.3-38.7-38.7V193.1c0.1-20.4,16-37.3,36.3-38.6
					c0.8-0.1,1.5-0.1,2.3-0.1H677.5z"/>
				<path id="Tracé_100" class="st1" d="M552.6,283c0,91.2-73.9,165.1-165,165.1c-91.2,0-165.1-73.9-165.1-165
					c0-91.2,73.9-165.1,165-165.1c0,0,0.1,0,0.1,0c90.7-0.5,164.6,72.7,165,163.4C552.6,281.9,552.6,282.5,552.6,283z"/>
				<path id="Tracé_101" class="st4" d="M524.4,283c0,75.6-61.2,136.9-136.8,136.9c-75.6,0-136.9-61.2-136.9-136.8
					s61.2-136.9,136.8-136.9c0,0,0,0,0.1,0c75.2-0.4,136.4,60.2,136.8,135.4C524.4,282.1,524.4,282.6,524.4,283z"/>
				<path id="Tracé_102" class="st5" d="M468.2,339.3c-1.6,2.3-3.4,4.5-5.2,6.7c-0.1,0.1-0.2,0.3-0.3,0.4
					c-35.8,41.7-98.6,46.6-140.4,10.8s-46.6-98.6-10.8-140.4s98.6-46.6,140.4-10.8C491,239.5,498.1,297.4,468.2,339.3L468.2,339.3z"
					/>
				<path id="Tracé_103" class="st6" d="M468.2,339.3c-49.7,23.5-109.1,2.2-132.5-47.5c-15.4-32.5-12-70.9,8.9-100.2
					c35.3-16.6,77.1-11.1,106.9,14.1C490.9,239.2,498.2,297.2,468.2,339.3z"/>
				<circle id="Ellipse_4" class="st7" cx="404.7" cy="265.5" r="31.5"/>
				<g id="Groupe_24" transform="translate(0.054 0)">
					<path id="Tracé_104" class="st1" d="M108.8,56.6l-31.7,0c-9.1,0-16.6-7.4-16.6-16.6V16.6C60.6,7.4,68,0,77.1,0l31.7,0
						c9.1,0,16.6,7.4,16.6,16.6V40C125.4,49.2,118,56.6,108.8,56.6z"/>
					<path id="Tracé_105" class="st1" d="M186.2,81.8v350.6c-0.1,22.9-18.6,41.4-41.5,41.5H41.5C18.6,473.8,0.1,455.3,0,432.4
						L0,81.8c0.1-22.9,18.6-41.4,41.5-41.5l103.2,0c0.5,0,0.9,0,1.4,0C168.4,41.2,186.1,59.5,186.2,81.8z"/>
				</g>
				<path id="Tracé_106" class="st3" d="M146.1,40.4l0,343.6c-0.1,22.9-18.6,41.4-41.5,41.5H1.4c-0.5,0-0.9,0-1.4,0l0-343.6
					c0.1-22.9,18.6-41.4,41.5-41.5l103.2,0C145.2,40.3,145.7,40.4,146.1,40.4z"/>
				<circle id="Ellipse_5" class="st8" cx="549" cy="145" r="20.7"/>
			</g>
			<g id="hand" transform="matrix(0.966, 0.259, -0.259, 0.966, 305.412, 1013.448)">
				<path id="Tracé_80" class="st9" d="M357.4,129.2H230l-16.4,221l111.8,107.5L340,492l-5,274.3c0,0-4.3,0-11.4-0.1v20.1H360
					L357.4,129.2z"/>
				<path id="Tracé_81" class="st10" d="M771.7,173.2h111.2c14.8,0,26.7-12,26.7-26.7v-28.9c0-14.8-12-26.7-26.7-26.7H771.7V173.2z
					"/>
				<path id="Tracé_82" class="st11" d="M887,135.4H775.8V90.7h-4.1v82.4h111.2c14.8,0,26.7-12,26.7-26.7v-23.7
					C904.8,130.6,896.2,135.4,887,135.4L887,135.4z"/>
				<path id="Tracé_83" class="st12" d="M235.6,307.2v-178h-62.7v178H235.6z"/>
				<path id="Tracé_84" class="st13" d="M819.3,76L203.2,59.6l-44.5-31.2c-3.6-2.6-8.5-2.4-12,0.4l-3.8,3v194.9l3.8,3
					c3.4,2.8,8.4,3,12,0.4l44.5-31.2l616.1-16.3c8.9-0.4,15.9-7.8,15.9-16.7V92.7C835.2,83.8,828.2,76.4,819.3,76L819.3,76z"/>
				<g id="Groupe_17" transform="translate(213.596 115.691)">
					<path id="Tracé_85" class="st14" d="M79.6,27.1h-66C6.1,27.1-0.1,21.1-0.1,13.6S5.8,0.1,13.3,0c0.1,0,0.2,0,0.2,0l66,0
						C87,0.1,93,6.2,93,13.6C92.9,21,86.9,27,79.6,27.1z"/>
				</g>
				<path id="Tracé_86" class="st14" d="M819.3,148.7L210,164.8c-4.4,0.1-8.7,1.5-12.4,4.1l-38.9,27.3c-2.8,2.1-6.5,2.4-9.7,1V231
					c3.2,1.5,6.9,1.1,9.7-1l44.5-31.2l616.1-16.3c8.9-0.5,15.9-7.8,15.9-16.7V132C835.2,140.9,828.2,148.2,819.3,148.7L819.3,148.7z
					"/>
				<g id="Groupe_18" transform="translate(0 115.691)">
					<path id="Tracé_87" class="st10" d="M99.7,27.1H13.5C6.1,27,0.1,20.9,0.1,13.4C0.2,6,6.1,0.1,13.5,0l86.2,0
						c7.5,0.1,13.5,6.2,13.4,13.6C113.1,21,107.1,27,99.7,27.1z"/>
				</g>
				<g id="XMLID_420_" transform="translate(56.422 26.57)">
					<g id="Groupe_19" transform="translate(0)">
						<path id="Tracé_88" class="st14" d="M96.2,0l0,205.3c-2.1-0.1-4.2-0.9-5.9-2.2L4.4,135.3C1.7,133.2,0,129,0,124.5l0-43.6
							c0-4.5,1.7-8.7,4.4-10.8L90.4,2.2C92,0.9,94.1,0.1,96.2,0z"/>
					</g>
				</g>
				<path id="Tracé_89" class="st15" d="M152.7,231.9v-33.8c-2.1-0.1-4.2-0.9-5.9-2.2l-85-67l-5.4-11.6V151c0,4.5,1.7,8.7,4.4,10.9
					l85.9,67.8C148.4,231,150.5,231.8,152.7,231.9z"/>
				<g id="Groupe_21" transform="translate(268.244 0)">
					<g id="XMLID_122_" transform="translate(0)">
						<g id="Groupe_20">
							<path id="Tracé_90" class="st9" d="M347.1,53.4c0-29.5,23.9-53.4,53.4-53.4C430.1,0,454,23.9,454,53.4v308.5
								c0,17.1-3.8,33.9-11,49.4L411,479.3l1.7,307h-346v-340L0,320.1l26.7-34.8l0-232C26.7,23.9,50.6,0,80.1,0
								c29.5,0,53.4,23.9,53.4,53.4c0-29.5,23.9-53.4,53.4-53.4s53.4,23.9,53.4,53.4c0-29.5,23.9-53.4,53.4-53.4
								C323.2,0,347.1,23.9,347.1,53.4L347.1,53.4z"/>
						</g>
					</g>
				</g>
				<path id="Tracé_91" class="st12" d="M680,609.4c-4.8-0.7-9.7-1.1-14.6-1.1H418.2c-32.6,0-59-26.3-59.1-58.9l-0.3-65.9
					c0-9.6-3.8-18.8-10.4-25.7l-91.1-94.5c-13.9-14.5-21.7-33.8-21.7-53.8v-2.2h-62.7v2.2c0,20.1,7.8,39.4,21.7,53.8l119.7,124.2
					c6,6.2,9.3,14.5,9.3,23.1v275.8H681L680,609.4z"/>
				<path id="Tracé_92" class="st16" d="M719.4,852.2V705.6c0-29.8-24.2-54-54-54H336.8c-29.8,0-54,24.1-54,53.9c0,0,0,0.1,0,0.1
					v146.6c0,15.9,12.9,28.8,28.8,28.8h379.2C706.6,881,719.4,868.1,719.4,852.2z"/>
				<path id="Tracé_93" class="st17" d="M527.6,836.8c-78.7,0-142.5-63.8-142.5-142.5v-32.9c0-3.3,0.3-6.6,0.9-9.8h-49.3
					c-29.8,0-54,24.1-54,53.9c0,0,0,0.1,0,0.1v146.6c0,15.9,12.9,28.8,28.8,28.8h379.2c15.9,0,28.8-12.9,28.8-28.8c0,0,0,0,0,0
					v-15.5L527.6,836.8L527.6,836.8z"/>
				<g id="Groupe_22" transform="translate(281.428 197.352)">
					<path id="Tracé_94" class="st12" d="M13.5,101.6C6,101.5,0,95.5,0,88c0,0,0,0,0,0l0-74.4C-0.1,6.1,5.9,0,13.4-0.1
						S27,5.9,27.1,13.3c0,0.1,0,0.2,0,0.2V88C27.1,95.5,21,101.5,13.5,101.6C13.5,101.6,13.5,101.6,13.5,101.6z"/>
				</g>
				<path id="Tracé_95" class="st12" d="M305.7,293.6c4.6-5.9,3.5-14.4-2.4-19c-5.9-4.6-14.4-3.5-19,2.4c0,0,0,0.1-0.1,0.1l-3,4
					l-11.7-11.2c-5.5-5.1-14-4.8-19.1,0.6c-5,5.4-4.8,13.7,0.4,18.9l13.8,13.3l-7.1,9.2c-4.6,5.9-3.4,14.4,2.5,19
					c5.9,4.6,14.4,3.4,19-2.5l14.4-18.7l0,0L305.7,293.6z"/>
			</g>
		</g>
	</g>
</g>
</svg>
